<svg xmlns="http://www.w3.org/2000/svg" viewBox="0 0 900 320" role="img" aria-label="Demo nail art accent tiles">
  <defs>
    <linearGradient id="bg" x1="0%" y1="0%" x2="100%" y2="100%">
      <stop offset="0%" stop-color="#f7f7fb"/>
      <stop offset="100%" stop-color="#c7c9d9"/>
    </linearGradient>
    <linearGradient id="ring" x1="0%" y1="0%" x2="100%" y2="100%">
      <stop offset="0%" stop-color="#ff8c00"/>
      <stop offset="45%" stop-color="#ff0066"/>
      <stop offset="100%" stop-color="#b400ff"/>
    </linearGradient>
    <linearGradient id="nail1" x1="0%" y1="0%" x2="0%" y2="100%">
      <stop offset="0%" stop-color="#ffe7f4"/>
      <stop offset="100%" stop-color="#ffc0d7"/>
    </linearGradient>
    <linearGradient id="nail2" x1="0%" y1="0%" x2="0%" y2="100%">
      <stop offset="0%" stop-color="#fff4e1"/>
      <stop offset="100%" stop-color="#ffd29b"/>
    </linearGradient>
    <linearGradient id="nail3" x1="0%" y1="0%" x2="0%" y2="100%">
      <stop offset="0%" stop-color="#e7e9f5"/>
      <stop offset="100%" stop-color="#c1c5dd"/>
    </linearGradient>
  </defs>

  <rect x="0" y="0" width="900" height="320" rx="28" fill="url(#bg)" stroke="#dcdde7" stroke-width="2"/>
  <rect x="12" y="12" width="876" height="296" rx="26" fill="none" stroke="url(#ring)" stroke-width="4" opacity="0.55"/>

  <g transform="translate(130 60)">
    <rect x="0" y="0" width="180" height="200" rx="26" fill="#ffffff" stroke="#e4e6f0" stroke-width="2" opacity="0.96"/>
    <rect x="46" y="10" width="90" height="180" rx="48" fill="url(#nail1)" stroke="#ff8ac4" stroke-width="3"/>
    <path d="M46 110c24 10 70 10 90-4" fill="none" stroke="#ff62aa" stroke-width="3" stroke-linecap="round" opacity="0.7"/>
    <circle cx="108" cy="46" r="12" fill="url(#ring)" opacity="0.82"/>
  </g>

  <g transform="translate(360 60)">
    <rect x="0" y="0" width="180" height="200" rx="26" fill="#ffffff" stroke="#e4e6f0" stroke-width="2" opacity="0.96"/>
    <rect x="46" y="10" width="90" height="180" rx="48" fill="url(#nail2)" stroke="#ffb347" stroke-width="3"/>
    <path d="M52 86c18-12 46-18 78-8" fill="none" stroke="#ff8c00" stroke-width="3" stroke-linecap="round" opacity="0.75"/>
    <circle cx="88" cy="150" r="10" fill="#ffffff" stroke="url(#ring)" stroke-width="3"/>
  </g>

  <g transform="translate(590 60)">
    <rect x="0" y="0" width="180" height="200" rx="26" fill="#ffffff" stroke="#e4e6f0" stroke-width="2" opacity="0.96"/>
    <rect x="46" y="10" width="90" height="180" rx="48" fill="url(#nail3)" stroke="#b5b9d0" stroke-width="3"/>
    <path d="M52 130c18 8 56 6 78-8" fill="none" stroke="#a2a7c3" stroke-width="3" stroke-linecap="round" opacity="0.7"/>
    <g transform="translate(116 40) rotate(18)">
      <path d="M0 0c10-4 18-3 24 1 6 5 7 12 3 19-6 11-21 19-36 19-6 0-10-6-7-11 3-5 8-10 13-14-5-4-8-10-9-16-1-5 6-9 12-6z" fill="url(#ring)" opacity="0.88" stroke="#ffffff" stroke-width="2"/>
    </g>
  </g>
</svg>
